<svg height="200" viewBox="0 0 1024 1024" width="200" xmlns="http://www.w3.org/2000/svg"><g fill="#484848"><path d="m789.333333 426.666667a42.666667 42.666667 0 0 1 -42.666666-42.666667c0-205.653333-191.573333-213.333333-213.333334-213.333333a42.666667 42.666667 0 0 1 0-85.333334c103.253333 0 298.666667 62.293333 298.666667 298.666667a42.666667 42.666667 0 0 1 -42.666667 42.666667z"/><path d="m789.333333 469.333333a42.666667 42.666667 0 0 1 -28.586666-11.093333l-97.28-87.466667a42.666667 42.666667 0 0 1 57.173333-63.573333l66.986667 60.586667 56.746666-56.746667a42.666667 42.666667 0 1 1 60.586667 60.586667l-85.333333 85.333333a42.666667 42.666667 0 0 1 -30.293334 12.373333zm-298.666666 426.666667c-103.253333 0-298.666667-62.293333-298.666667-298.666667a42.666667 42.666667 0 0 1 85.333333 0c0 205.653333 191.573333 213.333333 213.333334 213.333334a42.666667 42.666667 0 0 1 0 85.333333z"/><path d="m331.946667 684.8a42.666667 42.666667 0 0 1 -28.586667-10.666667l-66.986667-60.586666-56.746666 56.746666a42.666667 42.666667 0 0 1 -60.586667-60.586666l85.333333-85.333334a42.666667 42.666667 0 0 1 58.88 0l97.28 87.466667a42.666667 42.666667 0 0 1 -28.586666 74.24zm73.386666-215.466667h-213.333333a42.666667 42.666667 0 0 1 -42.666667-42.666666v-268.373334a42.666667 42.666667 0 0 1 42.666667-42.666666h213.333333a42.666667 42.666667 0 0 1 0 85.333333h-170.666666v183.04h170.666666a42.666667 42.666667 0 0 1 0 85.333333z"/><path d="m405.333333 341.333333h-213.333333a42.666667 42.666667 0 0 1 0-85.333333h213.333333a42.666667 42.666667 0 0 1 0 85.333333zm448 469.333334h-298.666666a42.666667 42.666667 0 0 1 -42.666667-42.666667v-128a42.666667 42.666667 0 0 1 42.666667-42.666667h298.666666a42.666667 42.666667 0 0 1 42.666667 42.666667v128a42.666667 42.666667 0 0 1 -42.666667 42.666667zm-256-85.333334h213.333334v-42.666666h-213.333334z"/><path d="m704 938.666667a42.666667 42.666667 0 0 1 -42.666667-42.666667v-341.333333a42.666667 42.666667 0 0 1 85.333334 0v341.333333a42.666667 42.666667 0 0 1 -42.666667 42.666667z"/></g></svg>